<svg
    width="125"
    height="125"
    viewBox="0 0 125 125"
    fill="none"
    xmlns="http://www.w3.org/2000/svg"
  >
                    <style>
                        path, rect, circle, ellipse, line, polyline, polygon { 
                            fill: currentColor;
                        }
                        @media (prefers-color-scheme: dark) {
                            path, rect, circle, ellipse, line, polyline, polygon { 
                                fill: #fff;
                            }
                        }
                    </style>
    <path
      d="M62.5 125C56.9728 125 52.6148 123.565 49.426 120.695C46.2372 117.932 44.6429 113.839 44.6429 108.418C44.6429 107.781 44.6429 107.143 44.6429 106.505C44.7492 105.867 44.8554 105.336 44.9617 104.911C43.2611 107.249 41.1883 109.162 38.7436 110.651C36.2989 112.139 33.801 112.883 31.25 112.883C28.2738 112.883 25.2976 111.926 22.3214 110.013C19.4515 108.099 17.0068 105.708 14.9872 102.838C13.074 99.8618 12.1173 96.8325 12.1173 93.75C12.1173 91.199 12.8082 88.7011 14.1901 86.2564C15.6781 83.8116 17.6446 81.7389 20.0893 80.0383C19.6641 80.1446 19.1327 80.2509 18.4949 80.3571C17.8571 80.3571 17.2194 80.3571 16.5816 80.3571C11.1607 80.3571 7.01531 78.7628 4.14541 75.574C1.3818 72.3852 0 68.0272 0 62.5C0 58.4609 0.797194 55.1127 2.39158 52.4554C4.09226 49.798 6.21811 47.8316 8.76913 46.5561C11.3202 45.1743 13.9243 44.5897 16.5816 44.8023L19.1327 44.9617H20.0893C17.6446 43.1548 15.6781 41.0289 14.1901 38.5842C12.8082 36.1395 12.1173 33.6416 12.1173 31.0906C12.1173 27.6892 12.9677 24.6067 14.6684 21.8431C16.369 19.0795 18.6543 16.8474 21.5242 15.1467C24.5004 13.446 27.7424 12.5957 31.25 12.5957C33.6947 12.5957 36.1395 13.2866 38.5842 14.6684C41.1352 16.0502 43.2611 17.8571 44.9617 20.0893C44.8554 19.5578 44.7492 19.0264 44.6429 18.4949C44.6429 17.8571 44.6429 17.2194 44.6429 16.5816C44.6429 11.1607 46.2372 7.06845 49.426 4.30485C52.6148 1.43495 56.9728 0 62.5 0C68.1335 0 72.4915 1.43495 75.574 4.30485C78.7628 7.06845 80.3571 11.1607 80.3571 16.5816C80.3571 17.2194 80.304 17.8571 80.1977 18.4949C80.1977 19.0264 80.1446 19.5578 80.0383 20.0893C84.1837 15.0935 88.7543 12.5957 93.75 12.5957C97.2577 12.5957 100.446 13.446 103.316 15.1467C106.186 16.8474 108.472 19.0795 110.172 21.8431C111.979 24.6067 112.883 27.6892 112.883 31.0906C112.883 36.1926 110.225 40.8163 104.911 44.9617C105.442 44.8554 105.974 44.8023 106.505 44.8023C107.143 44.696 107.781 44.6429 108.418 44.6429C113.839 44.6429 117.932 46.2372 120.695 49.426C123.565 52.5085 125 56.8665 125 62.5C125 68.0272 123.565 72.3852 120.695 75.574C117.932 78.7628 113.839 80.3571 108.418 80.3571C107.781 80.3571 107.143 80.3571 106.505 80.3571C105.974 80.2509 105.442 80.1446 104.911 80.0383C107.355 81.8452 109.269 83.9711 110.651 86.4158C112.139 88.8605 112.883 91.3053 112.883 93.75C112.883 96.8325 111.873 99.8618 109.853 102.838C107.94 105.708 105.495 108.099 102.519 110.013C99.6492 111.926 96.7262 112.883 93.75 112.883C91.199 112.883 88.7011 112.192 86.2564 110.81C83.9179 109.322 81.8452 107.355 80.0383 104.911C80.1446 105.336 80.1977 105.867 80.1977 106.505C80.304 107.143 80.3571 107.781 80.3571 108.418C80.3571 113.839 78.7628 117.932 75.574 120.695C72.4915 123.565 68.1335 125 62.5 125ZM56.1225 43.0485L58.3546 42.4107L56.1225 33.4821C54.6344 28.1675 53.8903 24.0221 53.8903 21.0459C53.8903 17.9634 54.6875 15.4656 56.2819 13.5523C57.9826 11.5327 60.0553 10.523 62.5 10.523C64.9447 10.523 66.9643 11.5327 68.5587 13.5523C70.2594 15.4656 71.1097 17.9634 71.1097 21.0459C71.1097 23.3844 70.7377 26.148 69.9936 29.3367C69.3559 32.5255 68.665 35.3954 67.9209 37.9464C67.1769 40.4975 66.7517 41.9855 66.6454 42.4107L68.8776 43.0485L73.023 33.1633C73.9796 30.9311 74.7768 28.3801 75.4145 25.5102C76.1586 22.534 76.5306 20.1956 76.5306 18.4949C76.5306 14.1369 75.2551 10.6824 72.7041 8.13137C70.2594 5.47406 66.858 4.14541 62.5 4.14541C58.142 4.14541 54.6875 5.42092 52.1365 7.97194C49.6918 10.523 48.4694 14.0306 48.4694 18.4949C48.4694 20.1956 48.7883 22.4809 49.426 25.3508C50.1701 28.2207 51.0204 30.8248 51.977 33.1633L56.1225 43.0485ZM44.0051 53.2526L45.2806 51.3393L37.3087 46.5561C32.3129 43.4736 28.699 40.8695 26.4668 38.7436C24.341 36.5115 23.2781 34.0668 23.2781 31.4094C23.2781 29.071 24.0221 27.2109 25.5102 25.8291C26.9983 24.4473 28.8584 23.7032 31.0906 23.5969C33.5353 23.5969 35.7674 24.3941 37.787 25.9885C39.8066 27.5829 41.5604 29.443 43.0485 31.5689C44.5366 33.6947 45.7058 35.608 46.5561 37.3087L51.0204 45.2806L52.9337 44.324L49.1072 34.4388C48.0442 31.6752 46.5561 28.9647 44.6429 26.3074C42.8359 23.5438 40.71 21.3116 38.2653 19.611C35.9269 17.804 33.3759 16.9005 30.6122 16.9005C26.9983 16.9005 23.7564 18.2823 20.8865 21.0459C18.0166 23.8095 16.5816 27.1046 16.5816 30.9311C16.5816 33.5884 17.432 36.1395 19.1327 38.5842C20.8333 40.9226 23.0123 43.0485 25.6696 44.9617C28.4333 46.7687 31.25 48.2568 34.1199 49.426L44.0051 53.2526ZM80.676 53.2526L90.8801 49.426C95.557 47.619 99.6492 45.068 103.157 41.773C106.665 38.4779 108.418 34.864 108.418 30.9311C108.418 26.9983 106.983 23.7032 104.114 21.0459C101.244 18.2823 98.0017 16.9005 94.3878 16.9005C86.9473 16.9005 80.7823 22.7466 75.8929 34.4388L71.7475 44.324L73.9796 45.2806L78.4439 37.3087C79.2942 35.608 80.4634 33.6947 81.9515 31.5689C83.5459 29.443 85.3529 27.5829 87.3725 25.9885C89.392 24.3941 91.4647 23.5969 93.5906 23.5969C95.8227 23.5969 97.6828 24.341 99.1709 25.8291C100.659 27.3172 101.403 29.1773 101.403 31.4094C101.403 33.5353 100.553 35.6611 98.852 37.787C97.1514 39.8065 95.0787 41.7198 92.6339 43.5268C90.1892 45.2275 87.7445 46.7687 85.2998 48.1505C82.9613 49.426 81.1012 50.489 79.7194 51.3393L80.676 53.2526ZM62.5 78.7627C67.0706 78.7627 70.8971 77.2215 73.9796 74.139C77.1684 70.9503 78.7628 67.0706 78.7628 62.5C78.7628 57.9294 77.1684 54.1029 73.9796 51.0204C70.8971 47.8316 67.0706 46.2372 62.5 46.2372C57.9294 46.2372 54.0497 47.8316 50.861 51.0204C47.7785 54.1029 46.2372 57.9294 46.2372 62.5C46.2372 67.0706 47.7785 70.9503 50.861 74.139C54.0497 77.2215 57.9294 78.7627 62.5 78.7627ZM18.4949 76.8495C20.3019 76.8495 22.5872 76.5306 25.3508 75.8929C28.2207 75.1488 30.8248 74.2985 33.1633 73.3418L43.0485 69.1964L42.4107 66.9643L33.4821 69.5153C31.1437 70.2594 28.9116 70.7908 26.7857 71.1097C24.7662 71.3223 22.8529 71.4286 21.0459 71.4286C18.0697 71.4286 15.5719 70.6314 13.5523 69.037C11.5327 67.3363 10.523 65.2636 10.523 62.8189C10.523 60.3741 11.5327 58.3546 13.5523 56.7602C15.5719 55.0595 18.0697 54.2092 21.0459 54.2092C23.9158 54.2092 27.3172 54.7406 31.25 55.8036L42.4107 58.6735L43.0485 56.4413L33.1633 52.2959C30.9311 51.3393 28.3801 50.5421 25.5102 49.9043C22.6403 49.1603 20.3019 48.7883 18.4949 48.7883C14.2432 48.7883 10.7887 50.0638 8.13138 52.6148C5.47407 55.0595 4.14541 58.4609 4.14541 62.8189C4.14541 67.1769 5.42092 70.6314 7.97194 73.1824C10.523 75.6271 14.0306 76.8495 18.4949 76.8495ZM106.505 76.8495C110.969 76.8495 114.477 75.574 117.028 73.023C119.579 70.4719 120.855 67.0706 120.855 62.8189C120.855 58.4609 119.526 55.0595 116.869 52.6148C114.318 50.0638 110.863 48.7883 106.505 48.7883C104.698 48.7883 102.307 49.1603 99.3304 49.9043C96.3542 50.5421 93.75 51.3393 91.5179 52.2959L81.6327 56.4413L82.2704 58.6735L93.5906 55.8036C95.7164 55.2721 97.6297 54.9001 99.3304 54.6875C101.031 54.3686 102.572 54.2092 103.954 54.2092C106.93 54.2092 109.428 55.0595 111.448 56.7602C113.467 58.3546 114.477 60.3741 114.477 62.8189C114.477 65.3699 113.467 67.4426 111.448 69.037C109.428 70.6314 106.93 71.4286 103.954 71.4286C101.616 71.4286 98.852 71.1097 95.6633 70.4719C92.4745 69.7279 89.6046 68.9838 87.0536 68.2398C84.5026 67.4957 82.9082 67.0706 82.2704 66.9643L81.6327 69.1964L91.5179 73.3418C93.75 74.2985 96.3542 75.1488 99.3304 75.8929C102.307 76.5306 104.698 76.8495 106.505 76.8495ZM30.9311 108.418C34.2262 108.418 37.3618 107.196 40.338 104.751C43.3142 102.307 46.2373 97.6828 49.1072 90.8801L53.2526 80.9949L51.3393 79.7194L46.5561 88.0102C45.7058 89.7109 44.4834 91.6241 42.889 93.75C41.4009 95.8758 39.6471 97.736 37.6276 99.3304C35.7143 100.925 33.6416 101.722 31.4094 101.722C29.071 101.722 27.1577 100.978 25.6696 99.4898C24.2878 98.0017 23.5969 96.1416 23.5969 93.9094C23.5969 91.7836 24.4473 89.7109 26.148 87.6913C27.8486 85.5655 29.9213 83.6522 32.3661 81.9515C34.9171 80.1446 37.3618 78.5502 39.7003 77.1684C42.145 75.7866 44.0051 74.7236 45.2806 73.9796L44.324 72.0663L34.4388 75.8929C29.3367 77.9124 25.085 80.5166 21.6837 83.7054C18.3886 86.8941 16.7411 90.3486 16.7411 94.0689C16.7411 96.301 17.432 98.5332 18.8138 100.765C20.3019 102.997 22.1088 104.858 24.2347 106.346C26.4668 107.727 28.699 108.418 30.9311 108.418ZM94.0689 108.418C96.301 108.418 98.48 107.727 100.606 106.346C102.838 104.858 104.645 103.051 106.027 100.925C107.409 98.7989 108.099 96.6199 108.099 94.3878C108.099 90.4549 106.399 86.8941 102.997 83.7054C99.7024 80.4103 95.557 77.8061 90.5612 75.8929L80.676 72.0663L79.4005 73.9796L87.3725 78.7627C90.1361 80.3571 92.4745 81.8452 94.3878 83.227C96.4073 84.5026 97.8423 85.7249 98.6926 86.8941C100.5 89.2326 101.403 91.571 101.403 93.9094C101.403 96.1416 100.659 98.0017 99.1709 99.4898C97.6828 100.978 95.8227 101.722 93.5906 101.722C91.2521 101.722 89.0731 100.925 87.0536 99.3304C85.034 97.736 83.2802 95.8758 81.7921 93.75C80.304 91.5179 79.0816 89.6046 78.125 88.0102L73.6607 79.7194L71.7475 80.9949L75.574 90.8801C77.381 95.4507 79.932 99.5429 83.227 103.157C86.5221 106.665 90.1361 108.418 94.0689 108.418ZM62.5 120.855C66.858 120.855 70.2594 119.526 72.7041 116.869C75.2551 114.318 76.5306 110.863 76.5306 106.505C76.5306 104.698 76.1586 102.413 75.4145 99.6492C74.7768 96.7793 73.9796 94.1752 73.023 91.8367L68.8776 81.9515L66.6454 82.5893L69.1964 91.5179C69.9405 93.8563 70.4188 96.0884 70.6314 98.2143C70.9503 100.234 71.1097 102.147 71.1097 103.954C71.1097 106.93 70.2594 109.428 68.5587 111.448C66.9643 113.467 64.9447 114.477 62.5 114.477C59.949 114.477 57.8763 113.467 56.2819 111.448C54.6875 109.428 53.8903 106.93 53.8903 103.954C53.8903 101.084 54.4218 97.6828 55.4847 93.75L58.3546 82.5893L56.1225 81.9515L51.977 91.8367C51.0204 94.0689 50.1701 96.6199 49.426 99.4898C48.7883 102.36 48.4694 104.698 48.4694 106.505C48.4694 110.969 49.7449 114.477 52.2959 117.028C54.8469 119.579 58.2483 120.855 62.5 120.855Z"
      fill="black"
    />
  </svg>